<?xml version="1.0" encoding="utf-8" ?><svg xmlns="http://www.w3.org/2000/svg" xmlns:xlink="http://www.w3.org/1999/xlink" width="800" height="457" viewBox="0 0 800 457"><path fill="white" transform="scale(0.595238 0.595238)" d="M0 0L1344 0L1344 768L0 768L0 0Z"/><path fill="#242426" transform="scale(0.595238 0.595238)" d="M537.688 114.84C569.166 114.382 601.871 114.823 633.429 114.82L822.512 114.805C839.683 114.805 971.997 113.647 977.793 115.961C979.998 120.45 979.032 139.972 979.037 145.833L979.083 199.141C979.104 241.59 979.171 284.089 979.097 326.541C979.092 329.285 979.269 332.65 977.43 334.432C972.656 336.002 963.248 335.412 957.854 335.325C958.578 353.543 956.281 345.338 944.36 348.897C941.686 349.695 941.833 352.002 940.875 354.541C937.68 357.186 931.699 356.4 927.451 356.318C925.607 366.382 920.013 364.451 911.279 364.359C910.374 376.448 908.091 374.977 896.796 374.829C893.391 387.615 886.076 378.082 880.54 383.555C880.32 385.654 880.366 386.465 879.12 388.242C874.987 391.233 870.401 390.456 865.259 390.363C863.05 402.249 858.414 396.422 850.938 399.045C848.126 400.031 848.378 402.182 847.461 404.756C844.135 407.371 838.08 406.536 833.704 406.439C833.693 407.263 833.671 408.086 833.639 408.909C833.27 417.964 827.271 416.048 820.254 415.681L819.647 415.726C817.109 417.632 819.602 418.36 817.489 422.112C814.122 423.987 750.86 422.649 742.27 422.645L504.539 422.656L432.761 422.646C418.547 422.638 401.194 423.27 387.298 421.539C386.121 416.031 386.795 400.658 386.81 394.608L386.861 347.918L386.786 257.824C386.809 242.524 386.844 227.163 386.988 211.864C387.121 210.476 386.812 207.429 388.166 206.488C392.523 203.462 403.027 204.63 408.071 204.671C407.758 188.671 407.508 189.146 423.69 189.529C423.622 177.496 430.493 180.314 440.246 180.493C440.127 167.158 443.914 169.444 456.059 169.715C457.972 153.563 463.111 162.975 472.015 159.748C472.398 158.49 472.887 157.266 473.477 156.092C476.418 150.108 481.142 153.275 487.095 151.235C487.26 150.711 487.428 150.187 487.601 149.665C490.968 139.506 496.972 145.281 503.675 141.938C504.026 139.772 504.377 138.143 504.882 136.025C509.774 130.807 516.663 137.944 519.902 131.946C519.766 129.81 519.616 129.499 520.505 127.652C524.135 124.922 530.891 125.678 535.573 125.713C535.429 121.048 534.722 118.335 537.688 114.84Z"/><path fill="white" transform="scale(0.595238 0.595238)" d="M540.911 210.778C631.645 211.244 722.381 211.255 813.115 210.812L813.319 329.456C784.614 330.24 753.049 329.507 724.039 329.504L540.849 329.717L540.911 210.778Z"/><path fill="white" transform="scale(0.595238 0.595238)" d="M392.503 210.775L408.11 210.72C408.188 228.714 406.859 399.869 408.962 404.949C417.411 406.962 441.841 406.319 451.773 406.325L525.859 406.252L813.131 406.28C813.197 410.153 813.169 413.016 812.933 416.909L392.39 417.2L392.503 210.775Z"/><path fill="white" transform="scale(0.595238 0.595238)" d="M541.46 120.653L973.255 120.694L973.231 265.507L973.171 306.868C973.185 311.379 974.269 326.127 972.44 329.22L970.102 329.504L957.978 329.477L957.842 198.147L958.188 152.994C958.21 149.095 958.483 134.639 957.779 131.788C949.834 129.539 920.142 130.274 910.226 130.276L835.393 130.364L541.463 130.482L541.46 120.653Z"/><path fill="white" transform="scale(0.595238 0.595238)" d="M429.602 210.641L439.93 210.651C440.616 252.805 439.811 295.493 440.1 337.656C440.161 346.546 439.309 386.672 441.144 393.426C445.849 395.054 489.691 394.273 497.526 394.283L633.065 394.483L753.299 394.547C761.236 394.56 809.988 393.711 813.253 395.698C813.965 397.688 813.992 396.861 813.161 398.793C811.721 399.962 810.141 400.546 808.298 400.527C794.349 400.376 780.289 400.432 766.351 400.436L674.775 400.426L413.815 400.311L413.682 210.658L423.641 210.679L423.6 334.184L423.655 368.426C423.63 375.564 422.42 390.63 426.075 396.246L427.837 395.813C430.686 387.931 429.425 342.756 429.442 330.565L429.602 210.641Z"/><path fill="white" transform="scale(0.595238 0.595238)" d="M477.888 210.578L487.598 210.591L487.536 367.695C519.632 367.52 551.728 367.681 583.821 368.177C599.007 368.531 613.813 369.585 628.952 370.228C642.969 369.313 664.089 370.87 679.198 371L772.153 371.563C777.212 371.593 809.939 371.67 813.614 372.685C813.277 374.802 813.574 374.995 812.334 376.554C804.768 377.323 790.895 376.754 782.768 376.74L711.503 376.152L462.001 375.461L462.134 210.594L472.378 210.621L472.474 316.36C472.477 331.583 472.465 346.797 472.334 362.017C472.312 364.487 472.892 370.554 475.652 371.362C477.221 369.828 477.791 365.47 477.807 363.349C477.946 345.94 477.882 328.522 477.87 311.112L477.888 210.578Z"/><path fill="#ADADAE" transform="scale(0.595238 0.595238)" d="M628.952 370.228C642.969 369.313 664.089 370.87 679.198 371L772.153 371.563C777.212 371.593 809.939 371.67 813.614 372.685C809.93 373.819 795.996 373.604 791.486 373.683C775.909 374.021 760.329 374.235 744.748 374.327C726.452 374.53 708.345 375.609 689.974 375.024C676.933 374.609 664.355 373.69 651.405 372.329C645.392 371.697 634.034 371.586 628.952 370.228Z"/><path fill="white" transform="scale(0.595238 0.595238)" d="M540.902 159.058C580.986 157.9 626.865 158.964 667.308 158.966L921.323 158.895L921.431 329.498L911.49 329.485L911.37 172.8C911.624 167.068 911.809 167.098 908.657 162.493L906.677 163.26C904.707 170.005 905.722 210.302 905.736 221.081L905.658 329.51L895.961 329.488C895.272 289.029 896.763 247.675 896.021 207.097C895.753 192.495 896.529 177.509 895.966 162.881C885.828 162.389 873.276 162.708 862.898 162.709L803.893 162.721L621.917 162.718L573.217 162.69C563.773 162.728 551.576 163.159 542.406 162.58C540.923 161.469 541.315 161.311 540.902 159.058Z"/><path fill="white" transform="scale(0.595238 0.595238)" d="M445.693 210.619L456.147 210.638L456.351 381.295L710.039 382.241L779.14 382.539C786.187 382.551 806.922 382.042 812.496 382.921C813.533 384.505 813.218 386.607 813.195 388.628L445.696 388.655L445.693 210.619Z"/><path fill="white" transform="scale(0.595238 0.595238)" d="M592.987 136.198L952.603 136.42L952.375 329.465L942.657 329.438C942.474 316.562 942.672 303.211 942.686 290.297C942.9 241.567 943.328 190.326 942.506 141.683L666.902 141.636L583.737 141.634C573.831 141.635 551.319 142.271 542.113 141.35C541.303 139.619 541.626 139.379 541.749 137.332C543.62 135.708 585.927 136.275 592.987 136.198Z"/><path fill="white" transform="scale(0.595238 0.595238)" d="M563.016 147.356L937.104 147.177L937.125 329.471L927.071 329.461L927.051 318.687L927.293 209.445L927.275 175.956C927.271 170.095 927.352 164.09 927.13 158.26C926.951 153.537 925.832 152.942 920.782 152.913C909.837 152.851 898.751 152.949 887.788 152.991L824.327 153.115L631.096 152.744L571.355 152.812C566.739 152.819 544.075 153.864 541.459 151.671C541.444 149.59 541.091 149.319 542.118 147.81C546.36 147.006 558.311 147.35 563.016 147.356Z"/><path fill="white" transform="scale(0.595238 0.595238)" d="M524.95 210.71L535.328 210.72C535.409 251.581 534.651 294.69 535.44 335.327C559.514 336.076 587.248 335.408 611.722 335.4L756.625 335.431C762.621 335.434 809.5 334.882 812.498 336.064C813.871 338.345 813.341 340.319 813.306 343.319L629.07 343.29C594.275 342.932 559.478 342.871 524.682 343.107L524.95 210.71Z"/><path fill="white" transform="scale(0.595238 0.595238)" d="M541.155 168.513L890.465 168.506L890.512 329.511L880.524 329.485L880.309 224.492C880.311 208.128 880.835 190.308 880.296 174.128C853.794 173.035 820.982 174.078 793.862 174.098L623.128 174.021L571.244 173.892C563.102 173.883 550.286 174.254 542.428 173.7C540.843 172.1 541.338 171.329 541.155 168.513Z"/><path fill="white" transform="scale(0.595238 0.595238)" d="M540.906 179.543L874.688 179.677L874.656 329.485L864.958 329.483L865.002 235.792C865.009 220.098 865.594 199.578 864.727 184.466C839.976 183.868 812.603 184.474 787.59 184.484L632.675 184.542L573.011 184.557C565.157 184.558 549.722 184.995 542.381 184.356C540.818 183.006 541.23 182.143 540.906 179.543Z"/><path fill="white" transform="scale(0.595238 0.595238)" d="M541.044 190.486L843.984 190.491L843.799 329.424L834.085 329.423L834.285 195.279L639.139 195.539C607.909 195.503 573.425 196.163 542.388 195.376C540.717 193.784 541.241 193.4 541.044 190.486Z"/><path fill="white" transform="scale(0.595238 0.595238)" d="M540.659 200.912L828.195 200.848L828.234 329.504L819.116 329.476L819.03 241.309C819.032 236.497 819.357 208.916 818.538 206.044C811.778 204.396 797.219 205.033 789.723 205.098L750.636 205.292L613.947 205.342C591.658 205.342 564.309 206.084 542.393 205.187C540.831 204.057 541.162 203.308 540.659 200.912Z"/><path fill="white" transform="scale(0.595238 0.595238)" d="M493.402 210.574L503.743 210.64C503.95 258.622 503.907 306.605 503.615 354.586C518.708 354.493 533.802 354.493 548.895 354.584C555.954 356.489 570.142 353.339 574.747 360.571C573.034 362.243 567.962 361.358 564.942 361.775C559.684 362.194 546.637 361.786 540.851 361.778L493.314 361.813L493.402 210.574Z"/><path fill="#C1C0C1" transform="scale(0.595238 0.595238)" d="M568.561 354.507C579.325 353.391 592.774 355.013 603.772 355.567C627.617 356.769 651.819 359.302 675.648 360.343C693.132 361.107 711.549 360.267 729.117 360.597C735.374 360.715 747.001 360.23 752.867 360.917C759.989 360.857 810.145 359.822 812.597 361.91C813.203 362.425 813.478 363.064 813.814 363.764C813.61 364.661 813.781 365.059 812.939 365.549C809.01 367.83 698.174 365.714 683.237 365.55C673.656 366.179 658.303 365.084 648.262 364.73L583.372 362.442C577.198 362.375 571.089 362.402 564.942 361.775C567.962 361.358 573.034 362.243 574.747 360.571C570.142 353.339 555.954 356.489 548.895 354.584C555.448 354.383 562.006 354.357 568.561 354.507Z"/><path fill="white" transform="scale(0.595238 0.595238)" d="M752.867 360.917C759.989 360.857 810.145 359.822 812.597 361.91C813.203 362.425 813.478 363.064 813.814 363.764C813.61 364.661 813.781 365.059 812.939 365.549C809.01 367.83 698.174 365.714 683.237 365.55C679.897 364.955 676.419 365.76 673.726 364.46L673.558 363.198L674.844 361.519C678.115 360.775 690.382 361.33 694.391 361.174C712.485 360.47 735.012 362.231 752.867 360.917Z"/><path fill="#DCDBDB" transform="scale(0.595238 0.595238)" d="M548.895 354.584C555.448 354.383 562.006 354.357 568.561 354.507L569.057 354.64C579.481 357.347 622.828 356.599 627.436 359.48C621.979 362.34 594.524 357.494 583.372 362.442C577.198 362.375 571.089 362.402 564.942 361.775C567.962 361.358 573.034 362.243 574.747 360.571C570.142 353.339 555.954 356.489 548.895 354.584Z"/><path fill="white" transform="scale(0.595238 0.595238)" d="M509.362 210.674L519.399 210.666L519.389 302.13C519.382 314.35 518.518 336.714 519.635 348.041L519.772 349.394L509.309 349.332L509.362 210.674Z"/><path fill="white" transform="scale(0.595238 0.595238)" d="M849.757 190.366L859.166 190.375L859.071 329.481L849.598 329.466L849.757 190.366Z"/><path fill="white" transform="scale(0.595238 0.595238)" d="M634.94 349.733C652.651 349.616 810.364 348.134 812.872 350.045C813.549 352.073 813.623 352.335 812.983 354.36C812.594 354.627 812.205 354.895 811.816 355.162C765.691 354.928 719.564 355.252 673.439 354.866C667.69 354.818 661.941 354.72 656.194 354.55C635.62 353.909 615.094 352.214 594.547 351.061C595.141 350.548 596.064 349.866 596.858 349.828C609.37 349.234 622.486 350.756 634.94 349.733Z"/><path fill="#C1C0C1" transform="scale(0.595238 0.595238)" d="M525.555 148.15C525.284 145.838 524.751 143.616 525.833 141.584C528.588 139.906 531.615 140.479 535.114 140.55L535.381 147.889L535.452 152.733L535.441 157.991L535.816 161.017L535.4 163.136C532.994 164.895 527.568 165.297 525.323 163.063L525.49 160.871L525.802 158.066C525.166 156.666 525.322 154.344 525.306 152.716L525.555 148.15Z"/><path fill="#C1C0C1" transform="scale(0.595238 0.595238)" d="M525.555 148.15C525.284 145.838 524.751 143.616 525.833 141.584C528.588 139.906 531.615 140.479 535.114 140.55L535.381 147.889L525.555 148.15Z"/><path fill="#ADADAE" transform="scale(0.595238 0.595238)" d="M535.441 157.991L535.816 161.017L535.4 163.136C532.994 164.895 527.568 165.297 525.323 163.063L525.49 160.871L525.802 158.066C528.854 157.946 532.348 158.01 535.441 157.991Z"/><path fill="#303132" transform="scale(0.595238 0.595238)" d="M535.441 157.991L535.816 161.017C532.809 160.616 528.611 160.82 525.49 160.871L525.802 158.066C528.854 157.946 532.348 158.01 535.441 157.991Z"/><path fill="#303132" transform="scale(0.595238 0.595238)" d="M525.555 148.15L535.381 147.889L535.452 152.733L525.306 152.716L525.555 148.15Z"/><path fill="#303132" transform="scale(0.595238 0.595238)" d="M509.768 145.084C509.98 141.939 509.431 142.279 511.21 140.617C513.899 139.83 516.641 140.519 519.54 140.468L519.693 147.902L519.958 153.029L519.529 157.868L520.145 160.836C519.834 162.845 520.193 162.136 518.943 163.706C515.444 164.713 513.534 165.101 510.061 163.372L509.418 161.127L510.064 157.953L509.625 153.144L509.952 148.316L509.768 145.084Z"/><path fill="#ADADAE" transform="scale(0.595238 0.595238)" d="M509.768 145.084C509.98 141.939 509.431 142.279 511.21 140.617C513.899 139.83 516.641 140.519 519.54 140.468L519.693 147.902L519.25 147.776C517.238 148.355 512.271 148.272 509.952 148.316L509.768 145.084Z"/><path fill="#DCDBDB" transform="scale(0.595238 0.595238)" d="M509.768 145.084C512.312 144.962 516.994 144.313 518.899 145.719L519.25 147.776C517.238 148.355 512.271 148.272 509.952 148.316L509.768 145.084Z"/><path fill="#C1C0C1" transform="scale(0.595238 0.595238)" d="M510.064 157.953L519.529 157.868L520.145 160.836C519.834 162.845 520.193 162.136 518.943 163.706C515.444 164.713 513.534 165.101 510.061 163.372L509.418 161.127L510.064 157.953Z"/><path fill="#303132" transform="scale(0.595238 0.595238)" d="M510.064 157.953L519.529 157.868L520.145 160.836C516.111 160.231 513.402 160.522 509.418 161.127L510.064 157.953Z"/><path fill="#C1C0C1" transform="scale(0.595238 0.595238)" d="M509.625 153.144C512.961 153.104 516.657 152.974 519.958 153.029L519.529 157.868L510.064 157.953L509.625 153.144Z"/><path fill="#C1C0C1" transform="scale(0.595238 0.595238)" d="M849.823 355.96C849.759 352.319 849.166 352.284 850.815 349.719C853.938 347.84 856.332 347.327 858.769 350.835C859.091 353.113 859.009 353.684 858.78 355.909L859.03 361.176C859.044 363.557 858.953 367.082 859.345 369.313C856.684 369.567 852.183 369.481 849.381 369.514C848.477 365.339 849.261 360.187 849.823 355.96Z"/><path fill="#DCDBDB" transform="scale(0.595238 0.595238)" d="M849.823 355.96C849.759 352.319 849.166 352.284 850.815 349.719C853.938 347.84 856.332 347.327 858.769 350.835C859.091 353.113 859.009 353.684 858.78 355.909L849.823 355.96Z"/><path fill="#303132" transform="scale(0.595238 0.595238)" d="M849.823 355.96L858.78 355.909L859.03 361.176C856.491 361.047 852.379 360.484 850.406 361.766C849.602 363.368 849.697 363.54 849.808 365.399L849.381 369.514C848.477 365.339 849.261 360.187 849.823 355.96Z"/><path fill="white" transform="scale(0.595238 0.595238)" d="M849.808 365.399C852.302 365.331 856.127 364.901 858.095 366.156C858.854 367.569 858.936 367.766 859.345 369.313C856.684 369.567 852.183 369.481 849.381 369.514L849.808 365.399Z"/><path fill="#ADADAE" transform="scale(0.595238 0.595238)" d="M834.643 380.803C834.266 378.699 833.754 377.217 834.509 375.276C837.474 372.498 839.486 372.095 842.757 374.518C843.509 376.788 843.398 378.748 843.433 381.134C843.726 382.858 843.746 382.932 843.385 384.622C843.209 387.111 843.269 390.71 843.23 393.291L834.114 393.24C833.935 390.443 834.144 387.493 834.279 384.682C834.587 383.494 835.098 382.798 835.725 381.755L834.643 380.803Z"/><path fill="#ADADAE" transform="scale(0.595238 0.595238)" d="M834.643 380.803C834.266 378.699 833.754 377.217 834.509 375.276C837.474 372.498 839.486 372.095 842.757 374.518C843.509 376.788 843.398 378.748 843.433 381.134C840.229 381.252 837.851 381.054 834.643 380.803Z"/><path fill="#303132" transform="scale(0.595238 0.595238)" d="M843.433 381.134C843.726 382.858 843.746 382.932 843.385 384.622L834.279 384.682C834.587 383.494 835.098 382.798 835.725 381.755L834.643 380.803C837.851 381.054 840.229 381.252 843.433 381.134Z"/><path fill="#ADADAE" transform="scale(0.595238 0.595238)" d="M519.635 348.041C545.303 347.925 570.965 347.902 596.606 349.148C607.254 349.665 625.235 347.897 634.94 349.733C622.486 350.756 609.37 349.234 596.858 349.828C596.064 349.866 595.141 350.548 594.547 351.061C588.568 351.503 575.82 349.365 569.038 349.325C552.611 349.227 536.186 349.615 519.772 349.394L519.635 348.041Z"/><path fill="#908F90" transform="scale(0.595238 0.595238)" d="M493.766 160.639C492.162 149.549 492.983 147.532 503.939 147.174L504.178 154.419L503.882 156.806L503.982 160.71L493.766 160.639Z"/><path fill="#DCDBDB" transform="scale(0.595238 0.595238)" d="M503.882 156.806C500.999 156.86 497.468 157.311 495.096 155.918L495.309 155.025C497.924 153.84 501.245 154.283 504.178 154.419L503.882 156.806Z"/><path fill="#303132" transform="scale(0.595238 0.595238)" d="M478.231 160.589C478.498 158.882 478.488 156.827 480.196 156.121C485.543 153.91 487.846 155.514 487.724 160.645L487.731 165.635C487.795 171.079 484.501 172.665 479.403 169.97C478.132 169.298 478.385 167.047 478.278 165.526C478.45 163.951 478.301 162.188 478.231 160.589Z"/><path fill="#C1C0C1" transform="scale(0.595238 0.595238)" d="M478.278 165.526C481.437 165.476 484.583 165.362 487.731 165.635C487.795 171.079 484.501 172.665 479.403 169.97C478.132 169.298 478.385 167.047 478.278 165.526Z"/><path fill="#ADADAE" transform="scale(0.595238 0.595238)" d="M478.231 160.589C478.498 158.882 478.488 156.827 480.196 156.121C485.543 153.91 487.846 155.514 487.724 160.645C484.596 160.672 481.369 160.609 478.231 160.589Z"/><path fill="#545355" transform="scale(0.595238 0.595238)" d="M503.982 160.71C502.938 162.632 504.093 163.603 504.406 166.458C504.219 167.423 504.099 169.396 503.3 169.799C499.318 171.809 493.882 172.073 492.833 166.791C493.347 165.522 493.598 162.16 493.766 160.639L503.982 160.71Z"/><path fill="#C1C0C1" transform="scale(0.595238 0.595238)" d="M492.833 166.791C495.852 166.194 501.161 166.427 504.406 166.458C504.219 167.423 504.099 169.396 503.3 169.799C499.318 171.809 493.882 172.073 492.833 166.791Z"/><path fill="white" transform="scale(0.595238 0.595238)" d="M445.766 194.905L456.207 194.925L456.202 204.802L445.784 204.807L445.766 194.905Z"/><path fill="white" transform="scale(0.595238 0.595238)" d="M429.666 194.94L439.859 194.973L439.839 204.816L429.676 204.837L429.666 194.94Z"/><path fill="white" transform="scale(0.595238 0.595238)" d="M493.483 194.921L503.418 194.9L503.408 204.945L493.495 204.968L493.483 194.921Z"/><path fill="white" transform="scale(0.595238 0.595238)" d="M462.314 194.885L472.319 194.88L472.337 204.783L462.292 204.82L462.314 194.885Z"/><path fill="#908F90" transform="scale(0.595238 0.595238)" d="M849.981 376.681L850.359 374.86C852.878 373.686 855.551 374.358 858.297 374.79C858.868 376.562 859.413 381.662 858.514 383.614C855.389 386.18 854.171 385.475 849.617 385.312L849.981 376.681Z"/><path fill="#ADADAE" transform="scale(0.595238 0.595238)" d="M849.981 376.681L850.359 374.86C852.878 373.686 855.551 374.358 858.297 374.79L857.85 376.296C855.913 376.982 851.801 377.383 849.981 376.681Z"/><path fill="#ADADAE" transform="scale(0.595238 0.595238)" d="M896.198 351.238C897.042 346.381 900.895 347.883 905.414 348.141C905.452 351.581 905.558 355.239 905.487 358.659C902.837 358.714 899.04 359.059 896.731 358.121L896.22 356.52C896.321 354.934 896.225 352.864 896.198 351.238Z"/><path fill="#DCDBDB" transform="scale(0.595238 0.595238)" d="M896.198 351.238C899.587 351.174 901.97 350.907 905.129 352.231L905.284 354.159C901.107 356.885 900.563 355.666 896.22 356.52C896.321 354.934 896.225 352.864 896.198 351.238Z"/><path fill="white" transform="scale(0.595238 0.595238)" d="M413.938 194.999L423.55 194.952L423.521 204.66L413.761 204.663C413.676 201.583 413.851 198.11 413.938 194.999Z"/><path fill="white" transform="scale(0.595238 0.595238)" d="M478.371 194.917L487.468 194.903L487.487 204.895L478.348 204.9L478.371 194.917Z"/><path fill="#C1C0C1" transform="scale(0.595238 0.595238)" d="M880.846 348.652L890.315 348.699L890.477 357.932L880.828 357.722L880.846 348.652Z"/><path fill="white" transform="scale(0.595238 0.595238)" d="M880.648 335.401L890.441 335.382L890.425 343.727L880.733 343.788L880.648 335.401Z"/><path fill="white" transform="scale(0.595238 0.595238)" d="M864.996 335.423L874.615 335.417L874.586 343.844L865.049 343.804L864.996 335.423Z"/><path fill="#C1C0C1" transform="scale(0.595238 0.595238)" d="M819.237 382.027L827.633 382.121C827.765 385.231 827.631 388.437 827.552 391.557C823.822 391.675 822.403 392.163 819.72 389.921C818.664 387.683 819.103 384.588 819.237 382.027Z"/><path fill="white" transform="scale(0.595238 0.595238)" d="M834.218 360.855C836.723 360.863 840.831 360.517 842.673 361.916C843.919 363.783 843.539 367.034 843.484 369.392C840.106 369.415 837.249 369.921 834.577 368.326C833.48 366.22 834.021 363.35 834.218 360.855Z"/><path fill="white" transform="scale(0.595238 0.595238)" d="M911.466 335.397L921.293 335.341L921.306 343.283C918.562 343.331 914.257 343.931 912.272 342.607C910.917 340.631 911.374 337.955 911.466 335.397Z"/><path fill="#C1C0C1" transform="scale(0.595238 0.595238)" d="M865.077 364.551C866.191 359.491 869.54 361.022 874.404 361.226C874.542 363.707 874.828 367.089 874.777 369.493C872.014 369.401 869.199 370.107 866.668 369.202C864.967 367.414 865.464 367.498 865.077 364.551Z"/><path fill="#ADADAE" transform="scale(0.595238 0.595238)" d="M865.077 364.551C866.191 359.491 869.54 361.022 874.404 361.226C874.542 363.707 874.828 367.089 874.777 369.493C874.498 367.825 874.393 367.291 873.846 365.699C871.228 364.096 868.489 364.6 865.077 364.551Z"/><path fill="white" transform="scale(0.595238 0.595238)" d="M896.242 335.384L905.625 335.357L905.609 343.441C902.874 343.488 899.184 344.064 897.092 342.702C895.748 340.865 896.171 337.789 896.242 335.384Z"/><path fill="white" transform="scale(0.595238 0.595238)" d="M942.583 335.407C945.117 335.319 949.432 334.817 951.381 336.086C952.772 338.126 952.261 340.531 952.129 343.165L942.554 343.309L942.583 335.407Z"/><path fill="white" transform="scale(0.595238 0.595238)" d="M849.732 335.488L858.869 335.466L858.907 343.551C856.159 343.577 852.591 344.159 850.517 342.756C849.215 340.823 849.651 337.917 849.732 335.488Z"/><path fill="white" transform="scale(0.595238 0.595238)" d="M834.083 335.504L843.518 335.523L843.527 343.541C840.707 343.524 836.823 344.085 834.825 342.698C833.543 340.82 833.994 337.886 834.083 335.504Z"/><path fill="white" transform="scale(0.595238 0.595238)" d="M927.164 335.42C929.807 335.401 933.721 334.81 935.755 336.109C937.09 338.143 936.63 340.651 936.544 343.242C934.068 343.327 930.062 343.784 928.09 342.606C926.668 340.65 927.1 338.001 927.164 335.42Z"/><path fill="#DCDBDB" transform="scale(0.595238 0.595238)" d="M865.361 348.787L874.434 348.844L874.579 356.444L865.282 356.433C865.24 353.978 865.331 351.266 865.361 348.787Z"/><path fill="white" transform="scale(0.595238 0.595238)" d="M819.353 335.517C821.87 335.438 825.173 335.027 827.28 336.132C828.702 338.074 828.255 340.751 828.182 343.328L819.315 343.343L819.353 335.517Z"/><path fill="#DCDBDB" transform="scale(0.595238 0.595238)" d="M833.923 349.107C836.522 349.005 840.816 348.502 842.894 349.71C844.263 352.241 843.769 352.389 843.746 355.666C841.186 355.794 836.901 356.345 834.86 355.155C833.447 352.758 833.953 352.323 833.923 349.107Z"/><path fill="white" transform="scale(0.595238 0.595238)" d="M493.634 175.329C496.542 175.323 500.28 174.568 502.743 175.747C504.193 177.849 503.685 177.977 503.704 181.048C500.717 181.012 497.329 181.806 494.711 180.702C493.142 178.579 493.678 178.546 493.634 175.329Z"/><path fill="#DCDBDB" transform="scale(0.595238 0.595238)" d="M525.09 168.581C528.274 168.629 531.603 167.802 534.359 168.916C536.002 170.919 535.463 170.778 535.552 173.988C532.494 173.979 528.803 174.836 526.179 173.661C524.656 171.727 525.172 171.619 525.09 168.581Z"/><path fill="#DCDBDB" transform="scale(0.595238 0.595238)" d="M509.703 168.712C512.417 168.575 516.527 168.006 518.78 169.196C520.159 171.28 519.689 171.427 519.754 174.371C517.078 174.479 513.003 174.973 510.791 173.868C509.325 171.678 509.804 171.785 509.703 168.712Z"/><path fill="white" transform="scale(0.595238 0.595238)" d="M445.917 175.167C448.973 175.222 452.562 174.413 455.226 175.578C456.856 177.471 456.342 177.49 456.571 180.548C453.366 180.475 450.204 181.293 447.353 180.229C445.582 178.314 446.143 178.43 445.917 175.167Z"/><path fill="#DCDBDB" transform="scale(0.595238 0.595238)" d="M462.13 175.286C465.096 175.288 469.108 174.496 471.526 175.777C472.879 177.814 472.425 177.775 472.481 180.651C469.412 180.609 465.808 181.441 463.199 180.229C461.719 178.292 462.214 178.258 462.13 175.286Z"/><path fill="white" transform="scale(0.595238 0.595238)" d="M819.134 349.224C821.637 349.123 825.13 348.693 827.256 349.691C828.631 351.829 828.145 352.248 828.191 355.241C825.636 355.349 822.043 355.826 819.94 354.708C818.681 352.483 819.137 352.161 819.134 349.224Z"/><path fill="#ADADAE" transform="scale(0.595238 0.595238)" d="M880.632 363.99C883.298 363.862 887.307 363.35 889.55 364.449C891.008 366.56 890.529 366.544 890.632 369.566C887.609 369.493 884.579 370.294 881.886 369.161C880.273 367.001 880.787 367.187 880.632 363.99Z"/><path fill="white" transform="scale(0.595238 0.595238)" d="M525.014 190.423C528.218 190.478 531.216 189.687 534.129 190.677C535.867 192.544 535.31 192.313 535.442 195.56C532.217 195.485 529.329 196.265 526.345 195.31C524.56 193.429 525.127 193.743 525.014 190.423Z"/><path fill="white" transform="scale(0.595238 0.595238)" d="M819.223 360.873C821.743 360.766 825.153 360.299 827.236 361.428C828.469 363.033 828.11 364.773 828.054 366.925C825.592 367.01 822.387 367.369 820.206 366.489C818.733 364.311 819.254 364.017 819.223 360.873Z"/><path fill="white" transform="scale(0.595238 0.595238)" d="M524.643 179.613C527.901 179.674 531.216 178.886 534.112 179.878C536.022 181.652 535.444 181.31 535.805 184.57C532.548 184.514 529.287 185.306 526.374 184.317C524.479 182.647 525.056 182.83 524.643 179.613Z"/><path fill="white" transform="scale(0.595238 0.595238)" d="M509.245 179.651C512.248 179.594 515.607 178.944 518.372 179.937C520.099 181.693 519.546 181.491 519.7 184.669C516.637 184.564 513.038 185.478 510.653 184.543C508.93 182.623 509.47 182.831 509.245 179.651Z"/><path fill="white" transform="scale(0.595238 0.595238)" d="M478.454 175.274C481.003 175.165 484.528 174.718 486.696 175.733C488.038 177.843 487.586 177.903 487.652 180.812C485.085 180.915 481.482 181.37 479.334 180.299C478.044 178.259 478.492 178.099 478.454 175.274Z"/><path fill="white" transform="scale(0.595238 0.595238)" d="M509.396 190.43C512.565 190.497 515.485 189.687 518.345 190.733C519.986 192.528 519.461 192.441 519.643 195.497C516.712 195.564 513.708 196.172 510.967 195.27C509.151 193.432 509.711 193.645 509.396 190.43Z"/><path fill="#C1C0C1" transform="scale(0.595238 0.595238)" d="M462.161 165.604C465.304 165.586 468.213 164.8 471.133 165.776C472.879 167.554 472.345 167.316 472.617 170.41C469.835 170.537 466.255 170.95 463.733 170.028C461.898 168.203 462.443 168.755 462.161 165.604Z"/><path fill="#C1C0C1" transform="scale(0.595238 0.595238)" d="M462.303 185.312C465.235 185.315 468.696 184.626 471.292 185.71C472.713 187.567 472.269 187.21 472.31 190.01C469.339 190.005 466.246 190.67 463.519 189.608C461.964 187.862 462.444 188.187 462.303 185.312Z"/><path fill="#C1C0C1" transform="scale(0.595238 0.595238)" d="M446.096 185.239C449.258 185.266 452.114 184.46 455.02 185.493C456.64 187.225 456.152 186.893 456.428 189.748C453.182 189.671 450.243 190.457 447.285 189.501C445.663 187.911 446.174 188.223 446.096 185.239Z"/><path fill="#C1C0C1" transform="scale(0.595238 0.595238)" d="M896.035 364.355C898.754 364.359 901.384 363.782 903.94 364.616C905.694 366.501 905.145 366.314 905.39 369.513C902.731 369.502 899.955 370.083 897.488 369.271C895.753 367.369 896.294 367.527 896.035 364.355Z"/><path fill="#C1C0C1" transform="scale(0.595238 0.595238)" d="M493.076 185.667C496.095 185.619 499.492 184.935 502.258 185.952C503.95 187.541 503.446 187.316 503.828 190.168C500.653 190.173 497.858 190.973 494.864 190.034C492.992 188.276 493.547 188.723 493.076 185.667Z"/><path fill="white" transform="scale(0.595238 0.595238)" d="M524.545 200.864C527.816 200.893 530.799 200.157 533.885 201.036C535.833 202.601 535.252 202.052 535.67 205.192C532.542 205.217 529.274 205.993 526.363 205.033C524.515 203.388 525.062 203.809 524.545 200.864Z"/><path fill="white" transform="scale(0.595238 0.595238)" d="M508.881 200.732C511.952 200.68 515.231 200.052 518.111 200.949C519.952 202.598 519.412 201.984 519.689 205.052C516.665 205.14 513.849 205.815 510.909 205.013C508.904 203.394 509.5 203.833 508.881 200.732Z"/><path fill="#C1C0C1" transform="scale(0.595238 0.595238)" d="M430.492 185.397C434.083 185.272 437.426 184.579 439.971 186.752L440.064 189.681C437.283 189.764 431.806 190.325 429.832 188.747C429.54 186.833 429.62 187.444 430.492 185.397Z"/><path fill="#C1C0C1" transform="scale(0.595238 0.595238)" d="M478.523 185.256C481.024 185.132 484.354 184.713 486.577 185.627C487.905 187.599 487.484 187.214 487.43 190.008C484.916 190.166 481.858 190.584 479.549 189.825C478.051 187.861 478.523 188.24 478.523 185.256Z"/><path fill="white" transform="scale(0.595238 0.595238)" d="M819.284 395.982C821.678 395.847 824.243 395.514 826.518 396.154C828.325 397.964 827.798 397.729 828.26 400.759C825.502 400.667 822.586 401.31 820.077 400.329C818.692 398.613 819.163 398.651 819.284 395.982Z"/><path fill="white" transform="scale(0.595238 0.595238)" d="M818.819 406.431C821.655 406.486 823.748 405.888 826.609 406.559C828.397 408.032 827.868 407.477 828.216 410.368C824.238 410.384 822.083 411.445 819.135 409.263L818.819 406.431Z"/><path fill="white" transform="scale(0.595238 0.595238)" d="M819.04 372.835C822.611 372.724 824.829 372.098 827.541 373.864L828.063 376.746C824.449 376.906 822.062 377.602 819.422 375.703L819.04 372.835Z"/><path fill="#C1C0C1" transform="scale(0.595238 0.595238)" d="M524.835 131.375C527.465 131.266 532.755 130.654 534.845 131.998C535.374 132.338 535.559 133.73 535.781 134.543C533.336 134.667 527.959 135.219 525.941 134.094C525.039 133.591 525.137 132.681 524.835 131.375Z"/><path fill="#ADADAE" transform="scale(0.595238 0.595238)" d="M849.531 390.157C852.481 390.132 856.305 389.691 858.759 391.015L859.302 393.011C855.169 393.328 850.191 394.947 849.531 390.157Z"/><path fill="#C1C0C1" transform="scale(0.595238 0.595238)" d="M910.76 348.803C914.645 348.379 919.94 346.907 921.888 350.706C917.673 351.172 913.257 352.501 910.76 348.803Z"/><path fill="#C1C0C1" transform="scale(0.595238 0.595238)" d="M833.2 398.707C837.158 398.327 841.824 397.037 843.786 400.77C839.625 401.261 835.539 402.346 833.2 398.707Z"/><path fill="#C1C0C1" transform="scale(0.595238 0.595238)" d="M865.092 382.995C868.295 382.781 871.469 382.402 874.613 383.02L875.466 384.383C872.672 384.708 867.964 385.374 865.431 384.386L865.092 382.995Z"/><path fill="white" transform="scale(0.595238 0.595238)" d="M911.398 356.734C914.952 356.562 919.526 355.561 921.794 358.374C918.959 358.575 914.581 359.049 912.006 358.252L911.398 356.734Z"/><path fill="#DCDBDB" transform="scale(0.595238 0.595238)" d="M927.338 348.81C930.696 348.55 935.336 347.369 937.213 350.272C934.673 350.596 930.454 350.977 928.07 350.25L927.338 348.81Z"/><path fill="#ADADAE" transform="scale(0.595238 0.595238)" d="M865.075 375.072C867.499 374.755 872.044 374.39 874.28 375.199L874.576 376.45C871.193 376.657 869.236 376.869 865.908 376.367L865.075 375.072Z"/><path fill="#242426" transform="scale(0.595238 0.595238)" d="M580.132 485.154C581.268 487.2 580.793 503.958 580.79 507.254L580.682 581.768C580.656 594.792 580.381 607.97 580.858 620.972C581.242 631.466 584.149 633.698 593.511 636.11C589.074 639.654 567.582 653.483 562.688 656.115C562.264 650.431 562.464 642.05 562.424 636.168C547.766 655.183 521.291 660.468 500.682 648.179C461.426 620.981 476.237 561.867 517.351 546.373C533.482 540.294 547.162 542.982 562.322 549.94C562.287 541.021 562.741 532.062 562.567 523.144C562.374 513.33 560.362 508.1 552.376 502.56L580.132 485.154Z"/><path fill="white" transform="scale(0.595238 0.595238)" d="M519.712 551.566C533.33 550.495 545.634 554.445 555.484 564.129C562.077 570.611 562.813 576.357 562.77 585.16C562.695 600.569 562.582 615.973 562.455 631.38C551.868 637.067 548.589 637.956 536.71 639.286C512.734 638.946 498.276 623.48 494.13 601.003C490.243 579.935 495.487 555.828 519.712 551.566Z"/><path fill="#242426" transform="scale(0.595238 0.595238)" d="M973.644 482.369C973.683 482.404 973.729 482.434 973.762 482.476C975.144 484.209 974.61 554.518 974.62 564.067C985.805 549.09 1001.83 541.192 1020.63 543.815C1032.2 545.44 1042.66 551.578 1049.72 560.888C1070.75 589.007 1056.12 625.687 1030.21 644.876C1012.08 656.744 987.509 659.761 970.6 643.883C966.306 647.521 961.142 651.213 956.586 654.616L956.518 561.098C956.521 547.196 957.267 529.409 955.504 515.749C954.656 509.175 949.011 504.769 943.593 501.514C953.526 495.567 963.948 488.723 973.644 482.369Z"/><path fill="white" transform="scale(0.595238 0.595238)" d="M994.737 557.464C1048.7 552.529 1058.3 628.897 1022.96 644.887C1019.56 645.906 1016.03 646.428 1012.48 646.438C1001.47 646.45 992.054 642.681 984.168 635.054C973.562 624.796 974.311 613.675 974.439 600.156C974.54 589.481 974.503 578.648 974.543 567.926C980.205 561.585 986.587 559.008 994.737 557.464Z"/><path fill="#242426" transform="scale(0.595238 0.595238)" d="M802.007 570.304C802.033 552.508 803.411 531.392 800.23 513.836C798.932 506.669 787.242 506.214 786.004 502.038L786.782 501.09L827.892 500.945C830.652 500.935 835.955 500.399 837.662 502.095C835.552 505.41 828.847 507.111 826.24 511.358C823.788 515.416 822.222 519.947 821.645 524.653C820.192 536.771 820.429 625.631 822.788 634.296C825.765 645.228 833.804 646.129 842.253 651.026L842.392 651.845C839.408 652.802 835.852 652.534 832.675 652.494C826.504 652.494 785.75 652.931 783.343 651.925L783.248 651.107C788.63 648.324 799.008 643.248 800.102 636.888C803.394 617.759 801.914 594.588 801.867 575.062L729.808 575.218C729.78 587.958 727.556 632.482 733.154 641.96C736.838 648.198 745.333 647.895 747.183 651.657C744.543 653.189 698.632 652.628 693.691 651.717C693.544 649.492 711.095 647.745 710.772 624.71C710.27 588.887 712.343 551.43 710.013 515.589C709.483 507.45 695.345 506.558 693.943 500.894C700.324 501.179 744.518 500.355 746.427 501.855C746.262 505.631 737.906 505.708 734.967 509.263C726.893 519.027 729.8 557.494 729.881 570.289L802.007 570.304Z"/><path fill="#242426" transform="scale(0.595238 0.595238)" d="M423.121 483.732C425.012 486.742 422.601 613.14 424.021 630.281C424.432 635.236 425.774 643.013 430.049 646.253C431.887 647.646 434.84 647.66 437.032 647.17C439.506 646.616 441.579 644.941 442.865 642.782C447.621 634.803 447.259 577.329 444.598 567.409C443.331 562.685 440.325 560.655 436.243 558.338C445.635 552.299 455.112 546.395 464.673 540.627L464.55 598.676C464.499 607.479 462.895 634.65 468.236 641.028L468.502 641.34C472.146 645.654 477.969 647.67 480.531 650.951L480.069 651.887C476.232 653.046 396.738 652.856 390.045 652.119L389.693 651.19C392.229 647.946 398.933 646.604 401.218 643.267C404.914 637.869 405.364 629.48 405.374 623.09C405.423 590.307 405.627 557.507 405.222 524.729C405.077 513.036 403.502 508.801 393.783 502.353C402.425 496.305 414.018 489.457 423.121 483.732Z"/><path fill="#242426" transform="scale(0.595238 0.595238)" d="M643.485 542.388C666.345 539.493 688.906 554.278 693.601 576.934C695.904 588.051 666.109 585.082 659.854 585.072C643.578 584.946 627.301 585.02 611.026 585.295C611.901 599.804 614.467 612.987 624.578 624.057C641.184 642.238 669.437 645.481 687.899 628.696C691.898 624.45 695.395 618.861 698.669 613.958C687.313 669.08 605.748 668.449 596.995 611.224C594.354 594.332 598.645 577.089 608.895 563.407C617.859 551.367 628.474 544.543 643.485 542.388Z"/><path fill="white" transform="scale(0.595238 0.595238)" d="M637.751 545.568C638.375 545.513 639 545.464 639.625 545.421C648.653 544.811 654.447 545.97 661.909 552.064C667.175 556.364 677.363 573.512 671.211 579.82C667.472 583.655 651.683 582.495 645.586 582.384L610.812 582.305C613.219 563.83 618.872 551.286 637.751 545.568Z"/><path fill="#242426" transform="scale(0.595238 0.595238)" d="M934.194 537.497C937.892 540.446 932.087 626.714 936.723 639.834C939.781 648.485 947.157 646.872 949.726 651.594C947.908 653.089 920.743 652.494 916.235 652.478L916.535 629.543C914.849 632.033 913.186 634.21 911.361 636.597C899.018 652.742 870.87 662.11 854.036 646.714C849.673 642.679 846.59 637.453 845.168 631.683C842.862 622.569 844.341 584.626 843.774 571.972C842.695 563.443 840.685 561.307 833.853 556.656C843.777 550.628 853.573 544.264 863.579 538.397C863.586 565.208 863.36 592.021 863.618 618.827C863.796 637.321 876.302 644.148 893.257 639.948C903.352 637.448 909.78 632.781 916.519 625.106C917.197 608.756 917.039 590.185 916.271 573.742C915.919 566.186 911.512 560.261 905.562 555.774L934.194 537.497Z"/><path fill="#242426" transform="scale(0.595238 0.595238)" d="M333.352 499.813C334.183 499.776 335.015 499.754 335.846 499.747C349.033 499.655 369.887 505.167 379.439 514.572C379.043 525.63 377.931 538.047 377.184 549.19C373.04 538.114 370.102 528.851 362.425 519.593C349.609 504.138 325.621 495.79 308.842 510.006C304.669 513.542 301.419 518.887 301.325 524.447C300.614 566.701 362.848 562.583 384.33 587.327C398.231 603.622 391.035 631.12 375.298 643.219C361.105 654.13 343.722 654.937 326.667 653.043C306.486 649.163 296.12 643.396 279.738 631.8C284.582 623.188 289.806 612.096 294.279 603.106C297.789 617.793 300.274 625.985 312.234 637.151C332.313 657.303 383.931 656.295 380.053 618.719C377.095 590.061 321.595 583.3 302.846 567.841C282.12 550.752 287.126 517.541 309.722 505.699C317.97 501.377 324.458 500.452 333.352 499.813Z"/><path fill="#242426" transform="scale(0.595238 0.595238)" d="M452.032 503.924C456.112 502.37 460.714 503.171 464.03 506.012C467.345 508.852 468.843 513.278 467.935 517.549C467.027 521.82 463.858 525.253 459.674 526.499C453.529 528.328 447.037 524.968 444.981 518.893C442.925 512.819 446.04 506.205 452.032 503.924Z"/></svg>